<?xml version="1.0" encoding="UTF-8"?><svg id="T-Direct-Performance-Logo-Kit" xmlns="http://www.w3.org/2000/svg" viewBox="0 0 1180 420"><defs><style>.cls-1{fill:#fff;}</style></defs><path class="cls-1" d="M1134.93,33.52h-125.57c-8.32,0-15.07,6.75-15.07,15.07s6.75,15.07,15.07,15.07h47.71v173.28c0,8.32,6.75,15.07,15.07,15.07s15.07-6.75,15.07-15.07V63.65h47.71c8.32,0,15.07-6.75,15.07-15.07s-6.75-15.07-15.07-15.07ZM220.81,142.76c0,60.24-49.01,109.24-109.24,109.24h-56.5c-8.32,0-15.07-6.75-15.07-15.07V48.58c0-8.32,6.75-15.07,15.07-15.07h56.5c60.24,0,109.24,49.01,109.24,109.24ZM190.68,142.76c0-43.62-35.49-79.11-79.11-79.11h-41.44v158.21h41.44c43.62,0,79.11-35.49,79.11-79.11ZM293.64,33.52c-8.32,0-15.07,6.75-15.07,15.07v188.35c0,8.32,6.75,15.07,15.07,15.07s15.07-6.75,15.07-15.07V48.58c0-8.32-6.75-15.07-15.07-15.07ZM720.57,63.65c8.32,0,15.07-6.75,15.07-15.07s-6.75-15.07-15.07-15.07h-113.01c-8.32,0-15.07,6.75-15.07,15.07v188.35c0,8.32,6.75,15.07,15.07,15.07h113.01c8.32,0,15.07-6.75,15.07-15.07s-6.75-15.07-15.07-15.07h-97.94v-64.04h72.83c8.32,0,15.07-6.75,15.07-15.07s-6.75-15.07-15.07-15.07h-72.83V63.65h97.94ZM541.01,98.81c0-36-29.29-65.29-65.29-65.29h-75.34c-8.32,0-15.07,6.75-15.07,15.07v188.35c0,8.32,6.75,15.07,15.07,15.07s15.07-6.75,15.07-15.07V63.65h60.27c19.39,0,35.16,15.77,35.16,35.16s-15.77,35.16-35.16,35.16c-5.37,0-10.34,2.86-13.03,7.5-2.7,4.65-2.71,10.38-.05,15.04l50.23,87.9c2.78,4.87,7.87,7.59,13.1,7.59,2.53,0,5.1-.64,7.46-1.99,7.22-4.13,9.74-13.33,5.61-20.56l-39.84-69.71c24.44-9.45,41.82-33.2,41.82-60.93ZM877.52,63.65c19.15,0,37.65,6.96,52.07,19.59,6.26,5.48,15.78,4.85,21.26-1.41,5.48-6.26,4.85-15.78-1.41-21.26-19.92-17.44-45.46-27.05-71.92-27.05-60.24,0-109.24,49.01-109.24,109.24s49.01,109.24,109.24,109.24c26.46,0,52.01-9.61,71.92-27.05,6.26-5.48,6.89-15,1.41-21.26-5.48-6.26-15-6.89-21.26-1.41-14.42,12.63-32.92,19.59-52.07,19.59-43.62,0-79.11-35.49-79.11-79.11s35.49-79.11,79.11-79.11Z"/><path class="cls-1" d="M75.64,327.06h-25.28v61.88h13.61v-18.56h10.34c13.88,0,25.02-7.43,25.02-21.75v-.18c0-12.64-8.93-21.39-23.69-21.39ZM85.54,348.89c0,5.3-3.98,9.37-10.78,9.37h-10.78v-18.92h10.52c6.81,0,11.05,3.27,11.05,9.37v.18ZM160.06,376.83h33.59v12.11h-47.12v-61.88h46.67v12.11h-33.15v12.55h29.17v12.11h-29.17v12.99ZM294.52,347.66v-.18c0-5.83-1.86-10.7-5.3-14.14-4.07-4.07-10.17-6.28-18.03-6.28h-28.29v61.88h13.61v-19.8h10.7l13.26,19.8h15.91l-15.12-22.1c7.87-2.92,13.26-9.19,13.26-19.18ZM280.73,348.36c0,5.22-3.8,8.75-10.43,8.75h-13.79v-17.77h13.52c6.63,0,10.7,3.01,10.7,8.84v.18ZM343.94,327.06h47.12v12.37h-33.5v13.17h29.52v12.38h-29.52v23.96h-13.61v-61.88ZM469.29,326c-19.09,0-32.97,14.41-32.97,32v.18c0,17.59,13.7,31.82,32.8,31.82s32.97-14.41,32.97-32v-.18c0-17.59-13.7-31.82-32.8-31.82ZM487.85,358.18c0,10.61-7.6,19.27-18.56,19.27s-18.74-8.84-18.74-19.45v-.18c0-10.61,7.6-19.27,18.56-19.27s18.74,8.84,18.74,19.45v.18ZM602.95,347.66v-.18c0-5.83-1.86-10.7-5.3-14.14-4.07-4.07-10.17-6.28-18.03-6.28h-28.29v61.88h13.61v-19.8h10.7l13.26,19.8h15.91l-15.12-22.1c7.87-2.92,13.26-9.19,13.26-19.18ZM589.16,348.36c0,5.22-3.8,8.75-10.43,8.75h-13.79v-17.77h13.52c6.63,0,10.7,3.01,10.7,8.84v.18ZM699.57,327.06h14.67v61.88h-13.52v-40.4l-17.41,26.43h-.35l-17.24-26.17v40.13h-13.35v-61.88h14.67l16.27,26.17,16.27-26.17ZM787.45,326.62l-26.52,62.32h13.88l5.66-13.88h26.17l5.66,13.88h14.23l-26.52-62.32h-12.55ZM785.32,363.04l8.22-20.07,8.22,20.07h-16.44ZM914.74,327.06h13.44v61.88h-11.58l-29.97-39.34v39.34h-13.44v-61.88h12.55l29,38.1v-38.1ZM1025.86,370.2l8.66,8.75c-6.36,6.81-13.44,11.05-25.37,11.05-18.21,0-31.73-14.06-31.73-31.82v-.18c0-17.59,13.26-32,32.27-32,11.67,0,18.65,3.89,24.4,9.55l-8.66,9.99c-4.77-4.33-9.64-6.98-15.82-6.98-10.43,0-17.95,8.66-17.95,19.27v.18c0,10.61,7.34,19.45,17.95,19.45,7.07,0,11.4-2.83,16.27-7.25ZM1129.64,376.83v12.11h-47.12v-61.88h46.67v12.11h-33.15v12.55h29.17v12.11h-29.17v12.99h33.59Z"/></svg>